<?xml version="1.0" encoding="utf-8"?>
<!-- Generator: Adobe Illustrator 16.0.4, SVG Export Plug-In . SVG Version: 6.00 Build 0)  -->
<!DOCTYPE svg PUBLIC "-//W3C//DTD SVG 1.1//EN" "http://www.w3.org/Graphics/SVG/1.1/DTD/svg11.dtd">
<svg version="1.1" id="Layer_1" xmlns="http://www.w3.org/2000/svg" xmlns:xlink="http://www.w3.org/1999/xlink" x="0px" y="0px"
	 width="53px" height="53px" viewBox="0 0 53 53" enable-background="new 0 0 53 53" xml:space="preserve">
<path fill="#807F83" d="M8.101,10.265c0,0,0,0,0.004,0h4.975c0.283,0,0.514-0.232,0.515-0.515c0-0.002-0.061-4.266-0.061-5.45V4.285
	c0-0.973,0.203-1.822,0.56-2.534l0.171-0.319c-0.02,0.002-0.039,0.012-0.058,0.03l-9.665,9.585c-0.019,0.015-0.03,0.035-0.036,0.056
	c0.2-0.099,0.474-0.234,0.512-0.251C5.857,10.473,6.879,10.265,8.101,10.265z M46.806,9.221c-0.395-2.115-1.652-3.157-2.791-3.568
	c-1.225-0.442-3.713-0.902-6.838-1.27c-2.513-0.296-5.469-0.272-7.254-0.218c-0.215-1.467-1.244-2.808-2.396-3.272
	c-3.066-1.234-7.809-0.936-9.024-0.595c-0.968,0.271-2.039,0.825-2.634,1.678c-0.4,0.57-0.659,1.301-0.661,2.322
	c0,0.577,0.017,1.938,0.031,3.147c0.015,1.212,0.031,2.297,0.031,2.305c-0.002,1.08-0.877,1.958-1.961,1.959H8.334
	c-1.062,0-1.873,0.179-2.492,0.46c-0.62,0.282-1.06,0.661-1.394,1.11c-0.663,0.892-0.779,1.993-0.776,3.117
	c0,0,0.01,0.917,0.23,2.694c0.184,1.375,1.676,10.978,3.092,13.899c0.549,1.136,0.914,1.61,1.993,2.11
	c2.402,1.029,7.893,2.174,10.465,2.502c2.569,0.328,4.182,1.02,5.142-0.995c0.002-0.005,0.191-0.5,0.452-1.229
	c0.834-2.526,0.951-4.769,0.951-6.391c0-0.166,0.241-0.173,0.241,0c0,1.145-0.218,5.199,2.843,6.286
	c1.21,0.429,3.718,0.812,6.266,1.11c2.304,0.266,3.977,1.171,3.977,7.082c0,3.598-0.756,4.09-4.705,4.09
	c-3.2,0-4.421,0.082-4.421-2.459c0-2.057,2.034-1.841,3.539-1.841c0.674,0,0.186-0.501,0.186-1.769c0-1.262,0.789-1.992,0.042-2.01
	c-5.21-0.145-8.275-0.006-8.275,6.51c0,5.915,2.264,7.014,9.658,7.014c5.798,0,7.84-0.19,10.234-7.617
	c0.475-1.467,1.619-5.941,2.313-13.455C48.333,27.178,47.48,12.84,46.806,9.221z M36.699,25.069
	c-0.717-0.025-1.405,0.021-2.048,0.124c0.181-1.46,0.784-3.252,2.918-3.178c2.364,0.082,2.695,2.316,2.703,3.828
	C39.276,25.4,38.043,25.116,36.699,25.069z"/>
</svg>
