<?xml version="1.0" encoding="utf-8"?>
<!-- Generator: Adobe Illustrator 16.0.4, SVG Export Plug-In . SVG Version: 6.00 Build 0)  -->
<!DOCTYPE svg PUBLIC "-//W3C//DTD SVG 1.1//EN" "http://www.w3.org/Graphics/SVG/1.1/DTD/svg11.dtd">
<svg version="1.1" id="Layer_1" xmlns="http://www.w3.org/2000/svg" xmlns:xlink="http://www.w3.org/1999/xlink" x="0px" y="0px"
	 width="53px" height="53px" viewBox="0 0 53 53" enable-background="new 0 0 53 53" xml:space="preserve">
<g id="google_drive" display="none">
	<linearGradient id="SVGID_1_" gradientUnits="userSpaceOnUse" x1="25.1636" y1="16.5518" x2="16.2853" y2="23.9477">
		<stop  offset="0.4908" style="stop-color:#2AB674"/>
		<stop  offset="1" style="stop-color:#2AB674"/>
	</linearGradient>
	<polygon display="inline" fill="url(#SVGID_1_)" points="18.137,3.58 0,34.801 8.09,49.598 16.713,34.754 26.389,18.096 	"/>
	<g display="inline">
		<linearGradient id="SVGID_2_" gradientUnits="userSpaceOnUse" x1="16.0645" y1="35.793" x2="30.6775" y2="42.1823">
			<stop  offset="0.5571" style="stop-color:#527ABD"/>
			<stop  offset="1" style="stop-color:#527ABD"/>
		</linearGradient>
		<polygon fill="url(#SVGID_2_)" points="53,34.65 35.825,34.699 16.713,34.754 8.09,49.598 44.289,49.59 		"/>
		<linearGradient id="SVGID_3_" gradientUnits="userSpaceOnUse" x1="41.3457" y1="36.623" x2="38.4921" y2="27.9742">
			<stop  offset="0" style="stop-color:#FED04C"/>
			<stop  offset="1" style="stop-color:#FED04C"/>
		</linearGradient>
		<polygon fill="url(#SVGID_3_)" points="34.793,3.629 18.137,3.58 26.389,18.096 35.825,34.699 53,34.65 		"/>
	</g>
</g>
<g id="gmail" display="none">
	<g display="inline">
		<path fill="#E14D41" d="M46.375,45.649h3.907c1.426,0,2.718-1.13,2.718-2.555v-33.09c0-1.425-1.292-2.213-2.718-2.213h-3.458
			L26.305,24.05L5.561,7.503"/>
		<rect x="2.839" y="7.792" fill="#EDECDF" width="45.429" height="37.857"/>
		<polygon opacity="0.2" fill="#010101" points="47.395,15.501 5.679,44.415 5.679,45.669 26.249,31.518 46.796,45.676 
			48.957,16.198 		"/>
		<path fill="#E14D41" d="M50.282,7.792h-2.426L26.305,22.995L4.753,7.792H2.326C0.901,7.792,0,8.58,0,10.005v33.09
			c0,1.425,0.901,2.555,2.326,2.555h3.353V17.36l20.348,14.158L46.375,17.36v28.289h3.907c1.426,0,2.718-1.13,2.718-2.555v-33.09
			C53,8.58,51.708,7.792,50.282,7.792z"/>
	</g>
	<g display="inline">
		<path fill="#E14D41" d="M46.375,45.649h3.907c1.426,0,2.718-1.13,2.718-2.555v-33.09c0-1.425-1.292-2.213-2.718-2.213h-3.458
			L26.305,24.05L5.561,7.503"/>
		<rect x="2.839" y="7.792" fill="#EDECDF" width="45.429" height="37.857"/>
		<polygon opacity="0.2" fill="#010101" points="47.395,15.501 5.679,44.415 5.679,45.669 26.249,31.518 46.796,45.676 
			48.957,16.198 		"/>
		<path fill="#E14D41" d="M50.282,7.792h-2.426L26.305,22.995L4.753,7.792H2.326C0.901,7.792,0,8.58,0,10.005v33.09
			c0,1.425,0.901,2.555,2.326,2.555h3.353V17.36l20.348,14.158L46.375,17.36v28.289h3.907c1.426,0,2.718-1.13,2.718-2.555v-33.09
			C53,8.58,51.708,7.792,50.282,7.792z"/>
	</g>
</g>
<g id="dropbox" display="none">
	<polygon display="inline" fill="#4F9CD5" points="15.758,1.473 0,11.289 10.796,20.34 26.499,10.145 	"/>
	<path display="inline" fill="#4F9CD5" d="M36.028,39.785c-0.282,0-0.56-0.096-0.787-0.283l-8.742-7.256l-8.741,7.256
		c-0.228,0.188-0.507,0.283-0.788,0.283c-0.235,0-0.243-0.065-0.449-0.201l-6.251-4.232v5.846l16.587,10.508l16.585-10.508v-5.846
		l-6.607,4.232C36.629,39.72,36.264,39.785,36.028,39.785z"/>
	<polygon display="inline" fill="#4F9CD5" points="53,11.289 37.238,1.473 26.499,10.145 42.201,20.34 	"/>
	<polygon display="inline" fill="#4F9CD5" points="26.499,30.154 36.235,38.236 51.809,28.055 42.201,20.34 	"/>
	<polygon display="inline" fill="#4F9CD5" points="16.761,38.236 26.499,30.154 10.796,20.34 1.189,28.055 	"/>
</g>
<g id="imap" display="none">
	<polygon display="inline" fill="#1A90A3" points="51.051,9.08 2.258,9.08 26.656,25.281 	"/>
	<path display="inline" fill="#26C2E6" d="M26.656,29.594l-2.26-1.5L0,11.895v28.902c0,0.568,0.142,1.104,0.394,1.57
		c0.426,0.794,1.163,1.379,2.05,1.623c0.284,0.078,0.581,0.107,0.889,0.107h46.646c0.307,0,0.605-0.029,0.888-0.107
		c0.886-0.244,1.47-0.836,1.895-1.63C53.013,41.892,53,41.365,53,40.797V11.895l-24.24,16.199L26.656,29.594z"/>
</g>
<g id="evernote" display="none">
	<path display="inline" fill="#6AB044" d="M48.109,9.828c0-3.386-5.101-3.765-5.101-3.765L31.024,5.312c0,0-0.255-3.262-2.678-4.393
		c-2.423-1.129-5.081-0.783-6.997-0.766c-1.91,0.021-2.36,2.462-2.36,4.763s0.043,4.801,0.043,6.474
		c0,2.992-1.318,4.113-4.612,4.113H7.628c-1.897,0-3.378,0.342-3.378,1.879s2.234,14.717,5.305,17.74
		c1.781,1.753,12.673,3.023,14.968,3.023s1.529-6.756,2.167-6.756c0.639,0,1.338,3.836,4.952,4.734
		c3.611,0.899,8.436,0.736,8.69,3.31c0.335,3.394,0.638,7.78-1.594,8.095l-5.051,0.202c-3.462-0.247-2.535-4.03-1.005-4.03
		c1.529,0,2.295-0.06,2.295-0.06l0.19-4.139c0,0-7.929-0.94-8.266,4.412c-0.307,4.888,0.531,7.194,1.146,7.696
		c0.616,0.501,1.681,1.479,11.391,1.479C53.124,53.089,48.109,13.212,48.109,9.828z M42.518,27.534
		c-0.537,0.572-2.48-0.944-4.334-0.944c-1.859,0-3.862,0.983-4.332,0.337c-0.472-0.647,0.431-5.865,3.93-5.865
		C41.278,21.062,43.056,26.962,42.518,27.534z"/>
	<path display="inline" fill="#6AB044" d="M14.142,9.288c0-0.67,0.171-8.85,0.171-8.85L3.994,10.503c0,0,7.129,0,8.532,0
		S14.142,9.956,14.142,9.288z"/>
</g>
<g id="box" display="none">
	<g display="inline">
		<g>
			<linearGradient id="SVGID_4_" gradientUnits="userSpaceOnUse" x1="26.5" y1="-1.2158" x2="26.5" y2="55.4523">
				<stop  offset="0" style="stop-color:#0DBDEF"/>
				<stop  offset="1" style="stop-color:#0886C6"/>
			</linearGradient>
			<path fill-rule="evenodd" clip-rule="evenodd" fill="url(#SVGID_4_)" d="M26.599,15.713c-4.014,0-7.914,1.276-10.915,3.427V4.015
				c0-2.168-1.831-3.926-3.999-3.926c-2.17,0-4.001,1.758-4.001,3.926v28.906c0,0.49,0.222,3.324,0.351,4.128
				c1.29,9.064,9.175,16.04,18.6,16.04c10.328,0,18.683-8.365,18.683-18.688C45.316,24.078,36.927,15.713,26.599,15.713
				 M26.741,45.165c-5.95,0-10.772-4.818-10.772-10.764c0-5.946,4.822-10.764,10.772-10.764c5.948,0,10.771,4.817,10.771,10.764
				C37.513,40.347,32.689,45.165,26.741,45.165"/>
		</g>
	</g>
</g>
<g id="Seer" display="none">
	<polygon display="inline" fill="#E6E6E5" points="46.411,41.552 26.484,53.089 6.557,41.552 26.484,31.858 	"/>
	<polygon display="inline" fill="#61C3A4" points="24.982,23.728 5.668,33.603 5.668,11.804 	"/>
	<polygon display="inline" fill="#61C3A4" points="28.449,23.755 47.668,33.603 47.668,11.804 	"/>
	<linearGradient id="SVGID_5_" gradientUnits="userSpaceOnUse" x1="17.9746" y1="26.8975" x2="36.7047" y2="39.412">
		<stop  offset="0" style="stop-color:#00A297"/>
		<stop  offset="1" style="stop-color:#51BD96"/>
	</linearGradient>
	<polygon display="inline" fill="url(#SVGID_5_)" points="26.668,24.999 26.668,45.893 47.743,33.603 28.644,23.741 	"/>
	<polygon display="inline" fill="#6DBAA3" points="26.668,24.999 26.668,45.893 47.735,33.603 28.644,23.741 	"/>
	<polygon display="inline" fill="#18926F" points="5.298,33.603 26.668,45.893 26.668,24.999 24.601,23.741 	"/>
	<polygon display="inline" fill="#409B7F" points="5.308,33.603 26.668,45.893 26.668,24.999 24.601,23.741 	"/>
	<polygon display="inline" fill="#7BCAB4" points="28.635,23.741 47.71,11.804 26.628,0.089 5.257,11.804 24.596,23.741 
		26.605,22.704 	"/>
	<polygon display="inline" fill="#9AD5C5" points="24.646,23.741 26.668,24.999 26.668,22.704 	"/>
	<polygon display="inline" fill="#9AD5C5" points="24.646,23.741 26.668,24.999 26.668,22.704 	"/>
	<polygon display="inline" fill="#B8E1D6" points="26.668,22.704 26.668,24.999 28.69,23.741 	"/>
</g>
<g id="azure" display="none">
	<path display="inline" fill="#56A4D9" d="M25.637,23.941l4.948-17.235c-3.306-2.008-6.651-3.839-10.241-3.839
		c-5.043,0-9.573,2.394-9.573,2.394L5.934,22.539c0.002-0.002,4.754-2.232,9.795-2.232C19.197,20.307,22.438,22.015,25.637,23.941z"
		/>
	<path display="inline" fill="#56A4D9" d="M0,43.729c0,0,4.53-2.394,9.573-2.394c3.505,0,6.777,1.744,10.008,3.696l5.024-17.502
		c-3.196-1.926-6.436-3.633-9.902-3.633c-5.044,0-9.731,2.074-9.731,2.074"/>
	<path display="inline" fill="#56A4D9" d="M53,9.535c0,0-4.615,2.309-10.173,2.309c-3.301,0-6.417-1.618-9.519-3.478L28.36,25.604
		c3.212,1.943,6.432,3.678,9.851,3.678c5.557,0,9.865-2.164,9.865-2.164"/>
	<path display="inline" fill="#56A4D9" d="M47.096,30.618c0,0-4.354,2.255-9.91,2.255c-3.421,0-6.644-1.736-9.855-3.681
		l-5.025,17.502c3.18,1.92,6.367,3.617,9.752,3.617c5.556,0,10.173-2.309,10.173-2.309"/>
</g>
<g id="microsoft_exchange" display="none">
	<path display="inline" fill="#DB5953" d="M36.753,1.09H53v15.969l-6.137,5.961l-4.679-1.988L45,16.337V8.089h-8.247
		c0,0-9.753,7.104-12.644,14.688l-1.714-1.725C22.396,21.053,24.2,13.09,36.753,1.09z"/>
	<path display="inline" fill="#818181" d="M51.999,35.57v17.519h-16.24L29.8,46.316l1.985-4.861l4.696,2.633H45V35.57
		c0,0-7.241-9.752-14.826-12.642l1.794-1.716C31.968,21.213,39.999,23.02,51.999,35.57z"/>
	<path display="inline" fill="#DB5953" d="M17.247,51.089H0V34.577l6.638-5.96l4.928,1.986l-2.564,4.695v8.789h8.246
		c0,0,9.753-7.374,12.642-14.959l1.715,1.86C31.604,30.989,29.8,39.089,17.247,51.089z"/>
	<path display="inline" fill="#818181" d="M2,16.065V0.089h16.24l5.96,6.002l-1.986,4.745l-4.695-2.747H9.001v7.977
		c0,0,7.237,9.753,14.823,12.642l-1.791,1.717C22.033,30.424,14,28.617,2,16.065z"/>
</g>
<g id="exchange" display="none">
	<path display="inline" fill="#2371B9" d="M1,6.483v40.734l29,5.871v-53L1,6.483z M20,41.086L8,39.333V13.185l12-1.967v5.725
		l-8,0.794v5.29l8-0.36v5.724l-8-0.075v6.348l8,0.656V41.086z"/>
	<path display="inline" fill="#2371B9" d="M33,10.39v4.001h0.222l2.793,2.687l-0.923,2.094L33,17.813v8.143
		c1,0.659,1.789,1.242,2.726,1.598l-0.987,0.804c0,0-0.738-0.152-1.738-0.745v7.285c1-0.777,4.514-3.902,5.689-6.986l0.808,0.612
		c0,0-0.497,3.856-6.497,8.951v4.915h19v-32H33z M49,39.391h-7.569l-2.793-3.38l0.932-2.066l2.2,1.446H45V30.77
		c0,0-3.012-4.57-6.567-5.924l1.011-0.805c0,0,3.557,0.847,9.557,6.729V39.391z M49,22.095l-2.62,2.793l-2.445-0.931l1.065-2.2
		V17.39h-3.104c0,0-4.57,3.58-5.925,7.135l-0.803-0.793c0,0,0.846-3.341,6.728-9.341H49V22.095z"/>
</g>
<g id="google" display="none">
	<g display="inline">
		<linearGradient id="SVGID_6_" gradientUnits="userSpaceOnUse" x1="26.5" y1="0.3867" x2="26.5" y2="52.7912">
			<stop  offset="0" style="stop-color:#627EBE"/>
			<stop  offset="1" style="stop-color:#243E92"/>
		</linearGradient>
		<path fill="url(#SVGID_6_)" d="M53,44.156c0,4.913-4.02,8.933-8.933,8.933H8.933C4.02,53.089,0,49.069,0,44.156V9.021
			c0-4.913,4.02-8.933,8.933-8.933h35.135C48.98,0.089,53,4.108,53,9.021V44.156z"/>
	</g>
	<path display="inline" fill="#FFFFFF" d="M31.512,25.401c0-4.168,6.848-2.961,6.848-11.198c0-4.169-2.828-6.613-4.268-7.614h3.778
		l3.517-2H27.989c0,0-13.138,0.17-13.138,11c0,10.533,11.687,9.073,11.687,9.073s-1.936,2.956,1.229,6.156
		c0,0-15.905-0.378-15.905,10.093c0,5.758,6.303,8.373,13.002,8.373c6.699,0,15.433-2.787,15.433-11.521
		C40.296,30.134,31.512,29.571,31.512,25.401z M20.808,16.36c-1.501-4.396-0.112-8.851,3.103-9.949
		c3.216-1.097,7.039,1.577,8.54,5.975c1.501,4.396,0.111,8.85-3.104,9.948C26.132,23.433,22.309,20.757,20.808,16.36z
		 M27.939,46.688c-6.65,0-10.769-2.829-10.769-7.097c0-7.989,12.654-7.047,12.654-7.047c5.31,3.474,6.452,5.36,6.452,7.89
		C36.276,42.966,34.589,46.688,27.939,46.688z"/>
</g>
<g id="skydrive_1_" display="none">
	<g display="inline">
		<path fill="#2450A3" d="M53,45.257c0,4.308-3.524,7.832-7.833,7.832H7.833C3.525,53.089,0,49.564,0,45.257V7.921
			c0-4.308,3.524-7.832,7.833-7.832h37.334C49.475,0.089,53,3.613,53,7.921V45.257z"/>
	</g>
	<path display="inline" fill="#FFFFFF" d="M43.144,29.456c0.014-0.156,0.021-0.314,0.021-0.474c0-3.124-2.533-5.657-5.657-5.657
		c-1.113,0-2.151,0.322-3.026,0.879c-1.275-2.142-3.612-3.576-6.285-3.576c-3.953,0-7.172,3.139-7.305,7.061
		c-0.117-0.008-0.234-0.012-0.354-0.012c-3.124,0-5.656,2.532-5.656,5.656c0,3.125,2.719,5.657,5.844,5.657
		c0.029,0,0.274-0.003,0.274-0.004v0.103h21.554c0,0,0.001,0,0.002,0c2.644,0,4.787-2.192,4.787-4.836
		C47.343,31.81,45.51,29.747,43.144,29.456z"/>
	<g display="inline">
		<path fill="#FFFFFF" d="M14.913,37.089c-0.84-1-1.337-2.395-1.337-3.923c0-3.562,2.688-6.422,6.141-6.83
			c0.313-1.771,1.174-3.354,2.486-4.628c1.615-1.565,3.744-2.406,5.994-2.406c2.607,0,5.08,1.248,6.703,3.249
			c0.824-0.334,1.709-0.462,2.608-0.462c0.006,0,0.012,0,0.016,0c-0.333-5-4.107-8.129-8.718-8.129
			c-3.493,0-6.508,2.032-7.908,4.994c-1.022-0.691-2.253-1.102-3.579-1.102c-3.533,0-6.396,2.858-6.396,6.391
			c0,0.523,0.064,1.027,0.182,1.514C8.085,25.966,5.7,28.344,5.7,31.415c0,3.209,2.601,5.674,5.81,5.674c0.016,0,0.031,0,0.047,0
			h-0.068H14.913z"/>
	</g>
</g>
<g id="skydrive" display="none">
	<g display="inline">
		<path fill="#2450A3" d="M52.854,44.353c0,4.805-3.931,8.736-8.736,8.736H8.882c-4.805,0-8.736-3.932-8.736-8.736V8.825
			c0-4.805,3.931-8.736,8.736-8.736h35.236c4.805,0,8.736,3.932,8.736,8.736V44.353z"/>
	</g>
	<g display="inline">
		<path fill="#FFFFFF" d="M48.583,29.841c0,0-0.699,3.854-5.095,4.111c-0.283-4.109-3.465-7.361-7.63-7.456
			c0.006-0.114,0.01-0.229,0.01-0.345c0-4.047-3.282-7.328-7.33-7.328c-2.918,0-5.436,1.705-6.616,4.174
			c-1.05-0.786-2.356-1.252-3.77-1.252c-1.74,0-3.3,0.693-4.459,1.848c5.904,1.479,9.567,4.125,13.171,6.453
			c3.604,2.33,8.044,5.752,10.739,7.099c2.1,1.05,5.03,1.534,5.03,1.534c0.515-1.001,0.771-2.08,0.849-3.297
			C44.657,35.188,49.046,34.177,48.583,29.841z"/>
		<path fill="#FFFFFF" d="M43.634,40.097c-5.097,0-10.288-3.364-17.084-7.975c-6.796-4.611-12.911-7.28-17.28-7.28
			c-4.367,0-4.756,3.493-4.756,4.222c0,0.596,0.163,2.257,1.466,3.666c-0.706,1.016-1.121,2.25-1.121,3.582
			c0,3.482,2.604,6.299,6.086,6.299c0.017,0,24.584-0.01,24.584-0.01c1.901-0.066,3.52,0.057,5.117-1.37
			c0.804,0.209,5.564,1.257,7.973-2.558C48.618,38.673,46.836,40.097,43.634,40.097z M11.163,30.019c-1.71,0-3.259,0.68-4.395,1.781
			c-0.457-0.534-0.848-1.251-0.848-2.154c0-2.184,1.796-2.862,3.204-2.862c0.711,0,1.721,0.137,2.739,0.415
			c-0.021,0.262-0.017,0.545-0.017,0.943c0,0.71,0.119,1.346,0.336,1.984C11.852,30.071,11.511,30.019,11.163,30.019z"/>
		<path fill="#FFFFFF" d="M22.251,20.241c-0.102-0.394-0.155-0.805-0.155-1.23c0-2.717,2.203-4.92,4.921-4.92
			c0.885,0,1.713,0.236,2.432,0.645c0.996-2.057,3.098-3.479,5.536-3.479c3.401,0,6.158,2.758,6.158,6.158
			c0,0.244-0.018,0.483-0.045,0.72c2.698,0.653,4.705,3.079,4.705,5.979c0,1.952-0.91,3.692-2.327,4.821c0,0-1.868-3.328-5.981-3.73
			c0,0-0.62-7.898-8.847-7.898C24.243,17.306,22.251,20.241,22.251,20.241z"/>
	</g>
</g>
<g id="finder_hd">
	<g>
		<path fill="#CDCDCF" d="M52.685,41.677l-3.73-38.484c-0.174-1.813-1.808-3.104-3.63-3.104H7.627c-1.822,0-3.448,1.233-3.617,3.048
			L0.444,41.801l-0.375,3.288h3.384h1.274h44.166h0.796h3.241L52.685,41.677z"/>
		<path fill="#3F3F41" d="M49.609,46.089H47.79H4.728H3.392H0.069l0.538,3.455c0.189,1.812,1.659,3.545,3.48,3.545h44.823
			c1.823,0,3.469-1.67,3.661-3.482l0.358-3.518H49.609z"/>
		<g>
			<rect x="0.069" y="45.089" fill="#E1E2E3" width="52.861" height="1"/>
			<circle fill="#CDCDCF" cx="3.45" cy="49.276" r="0.967"/>
			<circle fill="#CDCDCF" cx="6.762" cy="49.276" r="0.966"/>
			<circle fill="#CDCDCF" cx="10.075" cy="49.276" r="0.966"/>
		</g>
	</g>
	<g>
		<path fill="#5089C8" d="M26.484,31.833c-4.212,0-8.332-0.616-12.294-1.836l0.645-1.936c3.754,1.151,7.656,1.734,11.649,1.734
			c0.521,0,1.041-0.326,1.557-0.346c0.133-2.47,0.448-4.361,0.448-4.361s-2.036,0-6.112,0c0-5.001,1.906-10,3.979-14H9.781v25
			h18.396c-0.148-2-0.199-2.935-0.196-4.178C27.485,31.929,26.985,31.833,26.484,31.833z M16.782,16.089h0.999v3h-0.999V16.089z"/>
		<path fill="#9FBEE2" d="M28.97,11.596c-1.225,2.056-2.196,4.157-2.89,6.258c-0.581,1.755-0.965,3.235-1.15,5.235h6.522
			l-0.588,2.997c-0.011,0.051-0.261,1.417-0.39,3.458c2.607-0.258,5.166-0.744,7.659-1.508l0.835,1.947
			c-2.724,0.838-6.188,1.406-8.188,1.67c0,0.139,0,0.279,0,0.424c0,1.293-0.307,3.012-0.171,4.012h12.171v-25H29.154
			C29.092,11.089,29.031,11.491,28.97,11.596z M34.781,16.089h2v3h-2V16.089z"/>
		<g>
			<rect x="16.782" y="16.089" fill="#333333" width="0.999" height="3"/>
			<rect x="34.781" y="16.089" fill="#333333" width="2" height="3"/>
			<path fill="#333333" d="M30.752,36.034c-0.135-1.229,0.029-2.664,0.029-3.957c0-0.145,0-0.285,0-0.424
				c2-0.264,5.464-0.818,8.188-1.656l-0.741-1.936c-2.492,0.765-5.099,1.277-7.705,1.535c0.129-2.041,0.354-3.46,0.364-3.511
				l0.565-2.997H24.93c0.186-2,0.569-3.381,1.15-5.136c0.693-2.102,1.665-4.186,2.89-6.241c0.062-0.104,0.122-0.305,0.185-0.305
				c1.072-1.846,2.14-3.318,2.917-4.319h-3.07c-0.821,1.001-1.746,2.232-2.646,4.079c-2.072,3.691-3.979,8.921-3.979,13.922
				c4.076,0,6.112,0,6.112,0s-0.315,1.892-0.448,4.361c-0.516,0.02-1.036,0.188-1.557,0.188c-3.993,0-7.896-0.503-11.649-1.654
				l-0.645,1.973c3.962,1.221,8.082,1.857,12.294,1.857c0.501,0,1.001,0.08,1.496,0.062c-0.003,1.24,0.048,2.49,0.196,4.336
				c0.136,1.231,0.349,1.877,0.673,3.877h2.489c-0.175-1.001-0.254-1.381-0.38-2.111C30.847,37.334,30.826,36.651,30.752,36.034z"/>
		</g>
	</g>
</g>
<g id="finder" display="none">
	<path display="inline" fill="#5089C8" d="M26.586,40.249c-6.847,0-13.542-1.003-19.983-2.986l1.048-3.145
		c6.1,1.871,12.445,2.817,18.936,2.817c0.845,0,1.69-0.127,2.529-0.159c0.217-4.015,0.73-6.688,0.73-6.688s-3.311,0-9.936,0
		c0-9,3.098-17,6.467-23H0v40h29.337c-0.241-3-0.325-4.732-0.318-6.75C28.211,40.366,27.399,40.249,26.586,40.249z M10,14.089h3.001
		v6H10V14.089z"/>
	<path display="inline" fill="#C5D1E4" d="M30.626,7.634c-1.991,3.342-3.568,6.646-4.697,10.059
		c-0.942,2.854-1.567,5.396-1.871,8.396H34.66l-0.956,4.847c-0.018,0.082-0.423,2.288-0.631,5.606
		c4.237-0.42,8.395-1.217,12.447-2.459l1.072,3.162C42.163,38.606,37,39.526,33,39.956c0,0.225,0,0.455,0,0.687
		c0,2.104,0.073,4.446,0.294,6.446H53v-40H30.926C30.824,7.089,30.726,7.464,30.626,7.634z M40,14.089h3v6h-3V14.089z"/>
	<g display="inline">
		<rect x="10" y="14.089" fill="#333333" width="3.001" height="6"/>
		<rect x="40" y="14.089" fill="#333333" width="3" height="6"/>
		<path fill="#333333" d="M33.239,47.078c-0.221-2-0.239-4.332-0.239-6.436c0-0.231,0-0.462,0-0.687
			c4-0.43,9.163-1.331,13.593-2.693l-1.062-3.145c-4.052,1.242-8.215,2.074-12.451,2.495c0.208-3.317,0.608-5.596,0.626-5.678
			l0.954-4.847H24.058c0.304-3,0.929-5.521,1.871-8.373c1.129-3.416,2.706-6.818,4.697-10.158c0.1-0.172,0.198-0.471,0.3-0.471
			c1.744-3.002,3.477-4.998,4.741-6.998h-4.99c-1.334,2-2.841,3.999-4.3,7c-3.369,6-6.467,14-6.467,23c6.625,0,9.936,0,9.936,0
			s-0.514,2.673-0.73,6.688c-0.839,0.032-1.685,0.104-2.529,0.104c-6.49,0-12.836-0.918-18.936-2.789l-1.048,3.157
			c6.441,1.983,13.137,2.993,19.983,2.993c0.813,0,1.625,0.116,2.433,0.09c-0.007,2.016,0.077,3.752,0.318,6.752
			c0.221,2.001,0.567,4.006,1.095,6.006h4.044c-0.284-1-0.555-1.955-0.76-3.141C33.534,48.9,33.359,48.079,33.239,47.078z"/>
	</g>
</g>
<g id="windows_hd" display="none">
	<g display="inline">
		<path fill="#CDCDCF" d="M52.685,41.677l-3.73-38.484c-0.174-1.813-1.808-3.104-3.63-3.104H7.627c-1.822,0-3.448,1.233-3.618,3.048
			L0.445,41.801l-0.376,3.288h3.385h1.274h44.166h0.796h3.241L52.685,41.677z"/>
		<path fill="#3F3F41" d="M49.61,46.089h-1.819H4.728H3.392H0.069l0.539,3.455c0.189,1.812,1.658,3.545,3.479,3.545h44.824
			c1.822,0,3.469-1.67,3.661-3.482l0.358-3.518H49.61z"/>
		<g>
			<rect x="0.069" y="45.089" fill="#E1E2E3" width="52.862" height="1"/>
			<circle fill="#CDCDCF" cx="3.45" cy="49.276" r="0.966"/>
			<circle fill="#CDCDCF" cx="6.763" cy="49.276" r="0.966"/>
			<circle fill="#CDCDCF" cx="10.075" cy="49.276" r="0.966"/>
		</g>
	</g>
	<path display="inline" fill="#2DABE2" d="M10.476,23.089l0.09-10.387l12.913-1.711v12.098H10.476z M25.479,10.679l17-2.484v14.895
		h-17V10.679z M42.495,25.089l0.029,15.043l-17.045-2.309V25.089H42.495z M23.479,37.552L10.48,35.796V25.089h12.999V37.552z"/>
</g>
<g id="windows_8" display="none">
	<path display="inline" fill="#2DABE2" d="M0.004,25.133L0.152,7.78l21.374-2.998v20.351H0.004z M24.526,4.268l28.01-4.112v24.978
		h-28.01V4.268z M53,28.134l-0.106,24.889l-28.367-3.829v-21.06H53z M21.526,48.743L0.17,45.69L0,28.134h21.526V48.743z"/>
</g>
<g id="apple_hd" display="none">
	<g display="inline">
		<path fill="#CDCDCF" d="M52.685,41.677l-3.73-38.484c-0.174-1.813-1.808-3.104-3.63-3.104H7.627c-1.822,0-3.448,1.233-3.617,3.048
			L0.444,41.801l-0.375,3.288h3.384h1.274h44.166h0.796h3.241L52.685,41.677z"/>
		<path fill="#3F3F41" d="M49.609,46.089H47.79H4.728H3.392H0.069l0.538,3.455c0.189,1.812,1.659,3.545,3.48,3.545h44.823
			c1.823,0,3.469-1.67,3.661-3.482l0.358-3.518H49.609z"/>
		<g>
			<rect x="0.069" y="45.089" fill="#E1E2E3" width="52.861" height="1"/>
			<circle fill="#CDCDCF" cx="3.45" cy="49.276" r="0.966"/>
			<circle fill="#CDCDCF" cx="6.762" cy="49.276" r="0.966"/>
			<circle fill="#CDCDCF" cx="10.075" cy="49.276" r="0.966"/>
		</g>
	</g>
	<g display="inline">
		<path fill="#EDEDED" d="M31.98,9.815c1.277-1.551,2.142-3.705,1.905-5.85c-1.842,0.072-4.076,1.225-5.396,2.773
			c-1.187,1.373-2.224,3.566-1.944,5.67C28.601,12.567,30.699,11.362,31.98,9.815z"/>
		<path fill="#EDEDED" d="M36.592,23.433c-0.045-4.641,3.786-6.867,3.956-6.976c-0.643-0.939-1.391-1.634-2.156-2.15
			c-1.804-1.218-3.706-1.446-4.543-1.481c-2.854-0.289-5.569,1.68-7.015,1.68c-1.446,0-3.681-1.637-6.046-1.594
			c-3.11,0.047-5.979,1.809-7.578,4.594c-2.932,5.085-1.225,12.379,1.467,17.086c0.277,0.484,0.56,0.95,0.854,1.373
			c1.54,2.227,3.374,4.727,5.784,4.637c2.317-0.092,3.196-1.5,6-1.5c2.806,0,3.596,1.5,6.048,1.455
			c2.498-0.047,4.079-2.27,5.608-4.502c1.767-2.581,2.493-5.081,2.538-5.21C41.454,30.819,36.641,28.975,36.592,23.433z"/>
	</g>
</g>
<g id="apple" display="none">
	<path display="inline" fill="#CDCDCF" d="M34.293,8.551c1.848-2.242,3.098-5.356,2.758-8.461c-2.666,0.107-5.897,1.772-7.808,4.013
		c-1.717,1.985-3.218,5.159-2.813,8.201C29.405,12.534,32.439,10.791,34.293,8.551z"/>
	<path display="inline" fill="#CDCDCF" d="M40.964,28.25c-0.065-6.713,5.475-9.932,5.724-10.091c-0.93-1.358-2.013-2.362-3.12-3.11
		c-2.609-1.762-5.361-2.092-6.571-2.141c-4.129-0.419-8.057,2.43-10.147,2.43s-5.324-2.371-8.747-2.305
		c-4.498,0.064-8.646,2.613-10.962,6.643C2.9,27.031,5.369,37.582,9.262,44.393c0.401,0.699,0.81,1.373,1.236,1.986
		c2.228,3.22,4.881,6.837,8.367,6.707c3.354-0.133,4.624-2.17,8.681-2.17c4.059,0,5.2,2.17,8.749,2.104
		c3.613-0.066,5.901-3.281,8.112-6.512c2.554-3.733,3.606-7.351,3.672-7.537C47.999,38.936,41.034,36.266,40.964,28.25z"/>
</g>
</svg>
