<?xml version="1.0" encoding="utf-8"?>
<!-- Generator: Adobe Illustrator 16.0.4, SVG Export Plug-In . SVG Version: 6.00 Build 0)  -->
<!DOCTYPE svg PUBLIC "-//W3C//DTD SVG 1.1//EN" "http://www.w3.org/Graphics/SVG/1.1/DTD/svg11.dtd">
<svg version="1.1" id="Layer_1" xmlns="http://www.w3.org/2000/svg" xmlns:xlink="http://www.w3.org/1999/xlink" x="0px" y="0px"
	 width="53px" height="53px" viewBox="0 0 53 53" enable-background="new 0 0 53 53" xml:space="preserve">
<g>
	<g>
		<path fill="#C1C1A2" d="M37.891,47.551c0,1.25-1.023,2.273-2.273,2.273H2.273C1.023,49.824,0,48.801,0,47.551V14.206
			c0-1.25,1.023-2.273,2.273-2.273h33.344c1.25,0,2.273,1.023,2.273,2.273V47.551z"/>
		<path fill="#ECEBCC" d="M37.891,45.277c0,1.25-1.023,2.273-2.273,2.273H2.273C1.023,47.551,0,46.527,0,45.277V14.206
			c0-1.25,1.023-2.273,2.273-2.273h33.344c1.25,0,2.273,1.023,2.273,2.273V45.277z"/>
	</g>
	<path fill="#188F45" d="M52.301,10.641l-7.047-7.047c-0.885-0.885-1.646-0.946-2.529-0.061L21.988,24.269l-7.734-7.733
		c-0.884-0.885-1.726-1.027-2.611-0.142l-6.966,6.966c-0.884,0.884-0.953,1.938-0.068,2.821l9.645,9.646l6.431,6.431
		c0.883,0.884,1.864,0.742,2.748-0.142l6.967-6.967L52.37,13.177C53.254,12.294,53.186,11.525,52.301,10.641z"/>
</g>
</svg>
