<?xml version="1.0" encoding="utf-8"?>
<!-- Generator: Adobe Illustrator 16.0.4, SVG Export Plug-In . SVG Version: 6.00 Build 0)  -->
<!DOCTYPE svg PUBLIC "-//W3C//DTD SVG 1.1//EN" "http://www.w3.org/Graphics/SVG/1.1/DTD/svg11.dtd">
<svg version="1.1" id="Layer_1" xmlns="http://www.w3.org/2000/svg" xmlns:xlink="http://www.w3.org/1999/xlink" x="0px" y="0px"
	 width="53px" height="53px" viewBox="0 0 53 53" enable-background="new 0 0 53 53" xml:space="preserve">
<g>
	<path fill="#3881F5" d="M53,34.567V6.913c0-2.535-1.652-4.033-4.188-4.033H4.327C1.792,2.88,0,4.954,0,7.489v38.021
		c0,2.535,2.146,4.608,4.681,4.608h34.493L53,34.567z"/>
	<polyline fill="#A0C3FF" points="53,34.565 39.174,34.565 39.174,50.119 	"/>
	<g>
		<circle fill="#EBEBEB" cx="41.622" cy="9.361" r="2.448"/>
		<circle fill="#EBEBEB" cx="11.666" cy="9.361" r="2.448"/>
	</g>
	<g>
		<path fill="#EBEBEB" d="M13.15,38.342c-1.293-1.575-1.939-3.491-1.939-5.75h3.184c0.135,1.57,0.429,2.71,0.881,3.422
			c0.79,1.275,2.218,1.913,4.285,1.913c1.603,0,2.89-0.429,3.861-1.287c0.971-0.857,1.457-1.964,1.457-3.319
			c0-1.67-0.511-2.84-1.533-3.506c-1.022-0.666-2.442-0.999-4.259-0.999c-0.204,0-0.41,0.003-0.619,0.009s-0.42,0.015-0.635,0.025
			v-2.693c0.316,0.034,0.581,0.057,0.796,0.067c0.214,0.012,0.445,0.018,0.694,0.018c1.14,0,2.077-0.181,2.811-0.542
			c1.287-0.631,1.931-1.761,1.931-3.387c0-1.208-0.429-2.139-1.287-2.794c-0.858-0.655-1.857-0.982-2.998-0.982
			c-2.032,0-3.438,0.677-4.217,2.032c-0.429,0.746-0.672,1.807-0.728,3.184h-3.014c0-1.806,0.361-3.342,1.083-4.606
			c1.242-2.258,3.426-3.387,6.554-3.387c2.473,0,4.386,0.55,5.741,1.651s2.033,2.696,2.033,4.784c0,1.49-0.401,2.699-1.203,3.625
			c-0.498,0.575-1.141,1.027-1.931,1.354c1.276,0.351,2.271,1.024,2.989,2.023c0.717,0.999,1.076,2.222,1.076,3.667
			c0,2.314-0.763,4.199-2.287,5.656c-1.524,1.457-3.687,2.185-6.487,2.185C16.523,40.704,14.443,39.916,13.15,38.342z"/>
		<path fill="#EBEBEB" d="M30.215,22.871v-2.337c2.202-0.214,3.737-0.573,4.607-1.076c0.869-0.501,1.518-1.69,1.947-3.564h2.404
			v24.149h-3.251V22.871H30.215z"/>
	</g>
	<polygon opacity="0.4" points="39.174,34.686 23.293,50.119 39.174,50.119 	"/>
</g>
</svg>
